<?xml version="1.0" standalone="no"?>
<!DOCTYPE svg PUBLIC "-//W3C//DTD SVG 20010904//EN"
 "http://www.w3.org/TR/2001/REC-SVG-20010904/DTD/svg10.dtd">
<svg version="1.0" xmlns="http://www.w3.org/2000/svg"
 width="1348.000000pt" height="1348.000000pt" viewBox="0 0 1348.000000 1348.000000"
 preserveAspectRatio="xMidYMid meet">
<metadata>
Created by potrace 1.11, written by Peter Selinger 2001-2013
</metadata>
<g transform="translate(0.000000,1348.000000) scale(0.100000,-0.100000)"
fill="#000000" stroke="none">
<path d="M4098 11105 c-2 -2 -46 -7 -98 -10 -114 -8 -165 -13 -205 -18 -16 -2
-57 -7 -90 -11 -33 -4 -67 -9 -75 -11 -8 -2 -33 -6 -55 -10 -62 -9 -99 -15
-115 -20 -8 -2 -31 -7 -50 -10 -19 -3 -73 -15 -120 -26 -47 -11 -96 -22 -110
-25 -14 -2 -36 -8 -50 -13 -14 -5 -52 -17 -85 -26 -33 -9 -72 -21 -87 -25 -16
-5 -28 -6 -28 -2 0 4 -4 2 -8 -3 -4 -6 -36 -20 -72 -32 -36 -11 -95 -32 -132
-46 -37 -14 -69 -22 -72 -19 -3 3 -6 0 -6 -6 0 -7 -5 -12 -11 -12 -17 0 -203
-82 -210 -93 -3 -5 -9 -8 -13 -7 -6 2 -209 -97 -246 -120 -8 -5 -62 -37 -120
-71 -93 -55 -293 -188 -339 -224 -9 -7 -55 -44 -103 -82 -177 -141 -391 -345
-528 -503 -36 -41 -67 -77 -70 -80 -3 -3 -28 -34 -55 -70 -28 -35 -60 -76 -72
-90 -13 -14 -23 -28 -23 -31 0 -3 -8 -15 -17 -27 -46 -55 -192 -281 -265 -411
-33 -58 -162 -314 -177 -352 -8 -18 -22 -53 -33 -76 -22 -52 -40 -95 -44 -108
-14 -47 -41 -111 -49 -117 -5 -4 -7 -8 -3 -8 5 0 -1 -23 -12 -51 -16 -44 -73
-227 -86 -278 -2 -9 -13 -52 -24 -96 -12 -44 -23 -89 -25 -100 -12 -57 -24
-113 -26 -117 -1 -2 -3 -16 -5 -33 -3 -30 -11 -70 -14 -70 -1 0 -3 -13 -5 -30
-6 -44 -16 -114 -20 -137 -3 -11 -7 -46 -10 -77 -3 -31 -8 -69 -10 -86 -26
-201 -27 -774 -1 -954 3 -18 6 -51 8 -72 1 -21 4 -39 7 -39 4 0 6 -17 6 -37 0
-21 4 -56 8 -78 4 -22 9 -56 13 -75 7 -46 12 -69 19 -100 3 -14 7 -34 9 -46 4
-27 46 -205 53 -224 4 -8 5 -19 4 -24 -1 -4 4 -14 10 -22 6 -8 9 -14 6 -14 -4
0 0 -19 9 -41 8 -23 16 -51 18 -63 4 -22 90 -267 105 -301 9 -20 23 -56 26
-65 0 -3 11 -27 23 -54 12 -27 22 -50 22 -53 0 -12 151 -312 160 -318 6 -3 8
-10 5 -15 -3 -4 2 -13 10 -20 8 -7 15 -17 15 -22 0 -5 16 -34 35 -64 19 -30
35 -57 35 -59 0 -25 313 -465 385 -540 11 -12 40 -45 65 -75 25 -29 59 -68 75
-86 17 -18 37 -41 46 -51 41 -46 269 -260 356 -333 170 -142 468 -355 547
-391 14 -7 26 -16 26 -21 0 -4 4 -8 8 -8 5 0 57 -27 116 -60 145 -81 446 -225
446 -214 0 3 12 -1 28 -9 15 -8 41 -20 57 -27 17 -7 38 -16 47 -21 10 -5 26
-9 36 -9 10 0 22 -3 25 -7 7 -7 101 -42 129 -48 9 -2 61 -18 115 -35 54 -18
110 -33 124 -35 15 -2 51 -11 80 -19 67 -19 109 -28 132 -28 9 1 17 -2 17 -6
0 -4 12 -8 28 -9 27 -1 64 -8 112 -19 14 -4 39 -8 55 -10 35 -3 81 -10 145
-20 25 -4 60 -7 78 -8 17 0 32 -3 32 -6 0 -23 756 -18 905 6 17 2 51 6 76 9
24 2 44 4 44 5 0 1 16 3 35 5 19 2 49 6 65 9 17 4 46 9 65 12 58 9 74 12 100
18 14 3 36 8 50 11 49 9 156 34 189 44 19 6 38 8 42 5 5 -3 9 0 9 5 0 6 8 11
19 11 16 0 300 89 341 106 8 4 22 8 31 10 8 2 29 10 45 19 16 8 33 15 37 15 4
0 27 8 50 19 65 28 81 34 90 33 4 -1 7 2 7 8 0 5 6 10 13 10 8 0 94 41 193 91
98 50 189 97 201 103 13 6 23 14 23 19 0 4 5 7 11 7 7 0 36 16 65 35 29 19 57
35 63 35 6 0 11 5 11 10 0 6 4 10 9 10 9 0 63 35 195 128 33 23 62 42 65 42 3
0 6 -155 5 -344 0 -304 2 -345 15 -348 9 -2 434 -3 945 -2 l929 0 -2 655 c-1
360 -1 677 0 704 1 55 1 69 -2 166 -1 36 1 71 5 78 4 6 3 11 -1 11 -5 0 -6 29
-3 65 3 36 3 65 0 65 -7 0 -4 86 4 99 4 5 3 12 -2 15 -4 3 -5 30 -2 60 3 31 4
56 1 56 -8 0 -6 104 2 118 4 6 3 13 -2 16 -4 3 -5 24 -1 46 4 22 5 40 1 40 -8
0 -6 134 2 147 4 7 3 14 -2 17 -6 4 -6 18 -1 36 5 17 6 30 2 30 -9 0 -7 154 2
169 4 6 4 11 -1 11 -4 0 -8 41 -8 91 l0 92 -106 81 c-58 45 -118 90 -134 101
-15 11 -32 25 -39 31 -6 6 -18 15 -27 20 -16 9 -61 44 -124 97 -18 15 -36 27
-40 27 -3 0 -13 6 -20 13 -21 18 -32 27 -125 97 -47 35 -91 70 -98 77 -7 7
-17 13 -20 13 -4 0 -18 10 -32 23 -14 12 -59 47 -100 77 -41 30 -81 61 -90 69
-8 7 -69 53 -135 103 -66 49 -129 97 -140 106 -11 9 -32 25 -46 34 -14 9 -32
23 -40 30 -8 7 -54 42 -102 78 -48 36 -102 77 -120 92 -18 15 -38 28 -44 28
-7 0 -13 4 -13 9 0 4 -19 21 -42 37 -24 16 -47 34 -53 40 -5 6 -26 22 -45 35
-19 13 -40 28 -46 34 -48 43 -164 126 -165 118 -1 -4 -3 -33 -4 -63 -5 -89
-15 -212 -20 -251 -3 -20 -8 -54 -10 -75 -3 -22 -7 -50 -10 -64 -11 -53 -16
-76 -21 -109 -3 -18 -14 -66 -25 -105 -11 -39 -22 -80 -24 -91 -4 -17 -59
-175 -99 -281 -6 -18 -17 -38 -23 -45 -6 -8 -13 -23 -15 -34 -1 -11 -5 -22 -8
-25 -3 -3 -16 -29 -29 -57 -14 -29 -28 -53 -33 -53 -4 0 -8 -7 -8 -15 0 -21
-122 -222 -144 -237 -6 -4 -7 -8 -3 -8 5 0 2 -6 -5 -13 -7 -8 -22 -26 -33 -41
-119 -165 -325 -379 -470 -489 -5 -4 -20 -15 -32 -25 -11 -9 -31 -24 -43 -32
-12 -8 -28 -21 -36 -27 -7 -7 -17 -13 -23 -13 -6 0 -11 -4 -11 -10 0 -5 -5
-10 -11 -10 -5 0 -36 -17 -67 -38 -54 -37 -211 -126 -222 -127 -3 0 -30 -12
-60 -27 -53 -26 -104 -48 -125 -54 -5 -2 -41 -14 -80 -28 -38 -13 -99 -34
-135 -45 -60 -18 -82 -24 -150 -37 -14 -2 -32 -7 -40 -10 -8 -3 -31 -8 -50
-10 -19 -3 -42 -7 -50 -9 -8 -3 -35 -7 -60 -10 -25 -3 -63 -8 -85 -12 -51 -9
-464 -9 -530 0 -177 23 -196 26 -310 53 -16 4 -37 8 -45 10 -36 7 -265 81
-305 99 -16 7 -58 25 -92 39 -119 50 -384 196 -391 217 -2 5 -8 9 -13 9 -9 0
-129 86 -188 135 -154 129 -305 286 -417 435 -90 120 -148 212 -226 358 -72
135 -179 404 -194 490 -3 14 -7 29 -10 34 -3 5 -7 18 -10 31 -3 20 -6 32 -18
85 -8 33 -37 205 -41 237 -8 70 -20 325 -16 345 1 3 3 55 6 115 3 61 7 121 10
135 3 14 8 45 11 70 5 52 13 99 19 120 2 8 7 27 10 43 10 52 15 72 30 127 8
30 17 64 20 74 11 45 48 152 56 161 5 5 9 15 9 22 0 17 29 83 96 218 66 134
92 178 157 275 28 41 62 92 76 113 13 20 28 37 33 37 4 0 8 5 8 10 0 6 8 18
18 28 9 10 35 40 57 67 57 70 266 274 287 281 10 3 18 11 18 17 0 7 19 24 43
39 23 15 51 35 62 45 34 31 113 83 124 83 6 0 11 4 11 8 0 5 10 14 23 20 12 6
40 23 62 37 123 78 533 255 590 255 9 0 24 4 34 10 10 5 31 12 47 15 51 9 68
13 112 25 24 6 60 13 80 15 20 2 53 6 72 9 105 16 252 28 345 27 76 0 280 -15
280 -21 0 -1 22 -3 49 -6 37 -4 304 -68 361 -88 31 -10 52 -18 67 -27 10 -5
26 -9 36 -9 10 0 22 -4 27 -9 6 -5 19 -11 30 -13 11 -1 23 -7 26 -11 3 -5 12
-10 20 -11 33 -7 223 -98 339 -162 102 -56 371 -223 405 -251 6 -5 42 -30 80
-57 98 -69 229 -170 233 -178 2 -5 10 -8 17 -8 7 0 15 -4 17 -8 2 -4 50 -46
108 -92 128 -103 148 -120 172 -142 10 -10 20 -18 23 -18 3 0 13 -8 23 -17 15
-16 85 -76 156 -136 70 -59 125 -107 169 -147 27 -25 55 -48 62 -53 8 -4 29
-22 47 -40 36 -34 158 -143 216 -192 20 -16 50 -43 68 -60 17 -16 51 -46 75
-66 24 -21 60 -51 79 -68 19 -18 52 -46 74 -64 21 -18 55 -48 76 -67 21 -19
46 -42 57 -50 57 -46 179 -148 197 -165 11 -11 39 -34 61 -50 35 -26 74 -59
109 -90 6 -5 38 -30 71 -55 65 -49 91 -69 109 -85 6 -6 45 -35 86 -65 41 -30
77 -58 78 -62 2 -5 9 -8 15 -8 6 0 20 -8 31 -19 12 -10 93 -67 181 -125 88
-59 169 -114 180 -122 10 -7 25 -14 32 -14 7 0 13 -3 13 -8 0 -4 21 -18 48
-32 26 -13 49 -28 52 -32 3 -4 21 -14 40 -23 19 -9 58 -29 85 -45 119 -69 383
-192 530 -247 22 -9 56 -21 75 -29 19 -7 48 -16 64 -18 16 -3 32 -9 35 -13 3
-4 15 -9 26 -11 11 -2 38 -10 60 -18 22 -9 41 -15 43 -15 1 1 4 0 7 0 3 -1 13
-2 23 -3 9 -1 23 -5 30 -9 6 -5 12 -6 12 -2 0 3 8 1 18 -4 9 -5 34 -12 56 -15
21 -4 42 -8 46 -11 5 -3 21 -7 37 -9 15 -3 73 -12 128 -20 149 -24 153 -24
250 -32 164 -14 432 -9 540 11 33 5 69 11 129 21 21 3 47 8 57 10 11 2 29 6
42 9 75 16 124 27 137 32 8 3 20 7 25 7 17 3 223 65 275 84 8 3 17 6 20 7 3 1
14 5 25 9 40 16 50 19 55 21 3 1 18 7 33 13 16 7 33 12 38 12 5 0 9 3 10 8 3
21 3 2132 0 2132 -2 0 -26 -24 -55 -52 -28 -29 -66 -66 -84 -81 -41 -35 -206
-147 -217 -147 -5 0 -16 -6 -24 -13 -37 -31 -302 -135 -381 -150 -14 -3 -45
-10 -70 -16 -74 -17 -112 -23 -170 -26 -30 -3 -55 -5 -55 -5 0 -6 -61 -10
-165 -10 -129 0 -155 2 -166 12 -3 4 -12 4 -18 2 -10 -4 -108 13 -171 30 -96
25 -284 101 -387 156 -25 14 -70 38 -100 54 -29 16 -72 42 -95 57 -23 16 -46
29 -52 29 -6 0 -11 5 -11 10 0 6 -4 10 -10 10 -5 0 -45 24 -87 54 -43 30 -93
65 -111 78 -18 13 -39 28 -45 33 -45 37 -97 75 -102 75 -3 0 -17 10 -30 23
-13 12 -37 32 -52 44 -40 30 -256 205 -269 218 -7 5 -33 28 -60 50 -26 22 -60
51 -75 65 -15 14 -47 41 -71 60 -23 19 -55 46 -69 60 -15 14 -49 43 -75 65
-26 22 -67 58 -92 80 -25 22 -56 49 -68 60 -13 11 -42 36 -64 55 -23 19 -52
44 -63 56 -12 11 -51 45 -86 75 -36 30 -72 61 -81 69 -27 24 -81 71 -150 130
-36 30 -67 57 -70 60 -3 3 -34 30 -70 60 -36 30 -70 59 -77 65 -6 5 -26 21
-44 35 -18 14 -37 30 -43 35 -25 25 -316 255 -321 255 -4 0 -12 6 -19 13 -44
42 -351 267 -366 267 -4 0 -10 4 -12 9 -3 9 -240 167 -328 219 -78 46 -94 56
-100 62 -9 9 -84 51 -112 63 -16 6 -28 15 -28 19 0 4 -7 8 -15 8 -8 0 -15 5
-15 10 0 6 -9 10 -19 10 -11 0 -21 3 -23 8 -1 4 -34 23 -73 42 -38 19 -71 38
-73 43 -2 4 -8 7 -14 7 -6 0 -43 15 -82 34 -154 74 -245 114 -250 108 -3 -3
-6 0 -6 7 0 7 -4 10 -9 6 -5 -3 -12 -1 -15 4 -3 5 -18 12 -32 15 -14 4 -45 15
-68 26 -22 10 -52 22 -66 25 -14 4 -38 13 -55 21 -23 10 -150 51 -185 59 -3 1
-12 4 -20 7 -22 8 -128 39 -151 44 -10 2 -27 6 -36 8 -129 31 -141 33 -268 56
-134 23 -173 29 -250 36 -33 2 -73 7 -90 10 -32 7 -601 14 -607 9z"/>
<path d="M7390 10938 c0 -4 15 -17 33 -29 17 -13 37 -28 43 -34 15 -13 39 -32
94 -75 25 -19 50 -39 56 -45 20 -18 58 -49 109 -90 28 -22 57 -46 67 -55 9 -8
31 -26 49 -40 19 -14 49 -39 69 -56 19 -16 98 -82 175 -145 77 -63 147 -121
155 -129 9 -8 28 -24 44 -35 15 -11 40 -31 55 -45 15 -14 45 -40 68 -58 23
-19 52 -43 65 -54 45 -38 64 -54 143 -118 44 -36 85 -70 90 -76 6 -6 66 -57
135 -114 69 -57 134 -112 145 -122 11 -9 82 -69 157 -132 76 -63 144 -120 152
-128 7 -7 31 -27 52 -45 22 -17 49 -39 60 -50 12 -10 42 -36 68 -58 l47 -40
1980 -1 1979 0 0 888 c0 703 -3 888 -12 889 -59 5 -6078 2 -6078 -3z"/>
</g>
</svg>
